<?xml version="1.0" encoding="UTF-8" standalone="no"?>
<!-- Created with Inkscape (http://www.inkscape.org/) -->

<svg
   xmlns:dc="http://purl.org/dc/elements/1.1/"
   xmlns:cc="http://creativecommons.org/ns#"
   xmlns:rdf="http://www.w3.org/1999/02/22-rdf-syntax-ns#"
   xmlns:svg="http://www.w3.org/2000/svg"
   xmlns="http://www.w3.org/2000/svg"
   xmlns:sodipodi="http://sodipodi.sourceforge.net/DTD/sodipodi-0.dtd"
   xmlns:inkscape="http://www.inkscape.org/namespaces/inkscape"
   width="38mm"
   height="14mm"
   viewBox="0 0 38 14"
   version="1.1"
   id="svg8"
   >
  <defs
     id="defs2" />
  <sodipodi:namedview
     id="base"
     pagecolor="#ffffff"
     bordercolor="#666666"
     borderopacity="1.0"
     inkscape:pageopacity="0.0"
     inkscape:pageshadow="2"
     inkscape:zoom="7.9195959"
     inkscape:cx="119.66103"
     inkscape:cy="30.684372"
     inkscape:document-units="mm"
     inkscape:current-layer="layer1"
     showgrid="false"
     inkscape:window-width="3840"
     inkscape:window-height="2004"
     inkscape:window-x="-16"
     inkscape:window-y="-16"
     inkscape:window-maximized="1" />
  <metadata
     id="metadata5">
    <rdf:RDF>
      <cc:Work
         rdf:about="">
        <dc:format>image/svg+xml</dc:format>
        <dc:type
           rdf:resource="http://purl.org/dc/dcmitype/StillImage" />
        <dc:title></dc:title>
      </cc:Work>
    </rdf:RDF>
  </metadata>
  <g
     inkscape:label="Ebene 1"
     inkscape:groupmode="layer"
     id="layer1"
     transform="translate(0,-283)">
    <g
       id="g10"
       transform="matrix(0.07048272,0,0,-0.07048272,0.18132881,295.57962)">
      <g
         id="g12"
         transform="scale(0.1)">
        <path
           d="m 1634.32,262.418 c -11.39,10.402 -17.08,25 -17.08,43.832 v 626.879 c 0,18.801 5.69,33.422 17.08,43.82 11.38,10.399 26,15.598 43.83,15.598 17.83,0 32.17,-5.199 43.08,-15.598 10.89,-10.398 16.34,-25.019 16.34,-43.82 V 306.25 c 0,-19.832 -5.45,-34.68 -16.34,-44.57 -10.91,-9.879 -25.25,-14.852 -43.08,-14.852 -17.83,0 -32.45,5.203 -43.83,15.59 z m -14.11,906.902 c -14.85,13.86 -22.28,32.17 -22.28,54.97 0,21.77 7.43,39.6 22.28,53.47 14.85,13.86 34.17,20.8 57.94,20.8 23.77,0 43.08,-6.94 57.94,-20.8 14.84,-13.87 22.28,-31.7 22.28,-53.47 0,-22.8 -7.44,-41.11 -22.28,-54.97 -14.86,-13.87 -34.17,-20.8 -57.94,-20.8 -23.77,0 -43.09,6.93 -57.94,20.8"
           style="fill:#1d2a56;fill-opacity:1;fill-rule:nonzero;stroke:none"
           id="path14"
           inkscape:connector-curvature="0" />
        <path
           d="M 2963.1,708.816 V 306.25 c 0,-18.832 -5.46,-33.43 -16.34,-43.832 -10.91,-10.387 -25.25,-15.59 -43.08,-15.59 -17.83,0 -32.45,5.203 -43.82,15.59 -11.4,10.402 -17.09,25 -17.09,43.832 v 399.598 c 0,66.34 -11.88,114.382 -35.65,144.093 -23.77,29.707 -60.91,44.567 -111.41,44.567 -60.42,0 -107.95,-20.309 -142.61,-60.91 -34.68,-40.614 -51.99,-95.582 -51.99,-164.887 V 306.25 c 0,-18.832 -5.71,-33.43 -17.09,-43.832 -11.39,-10.387 -25.99,-15.59 -43.82,-15.59 -17.82,0 -32.19,5.203 -43.07,15.59 -10.92,10.402 -16.35,25 -16.35,43.832 v 399.598 c 0,66.34 -11.88,114.382 -35.65,144.093 -23.77,29.707 -61.41,44.567 -112.9,44.567 -59.42,0 -106.72,-20.309 -141.86,-60.91 -35.17,-40.614 -52.74,-95.582 -52.74,-164.887 V 306.25 c 0,-18.832 -5.45,-33.43 -16.34,-43.832 -10.91,-10.387 -25.25,-15.59 -43.08,-15.59 -17.82,0 -32.45,5.203 -43.82,15.59 -11.4,10.402 -17.08,25 -17.08,43.832 v 626.879 c 0,17.828 5.68,32.172 17.08,43.074 11.37,10.891 26,16.344 43.82,16.344 16.83,0 30.69,-5.199 41.6,-15.598 10.88,-10.398 16.34,-24.508 16.34,-42.336 v -71.297 c 21.77,42.567 51.99,75.243 90.61,98.036 38.63,22.769 83.19,34.164 133.7,34.164 112.89,0 186.66,-47.532 221.34,-142.606 20.79,43.57 52.48,78.223 95.07,103.985 42.57,25.742 91.11,38.621 145.58,38.621 160.43,0 240.65,-95.578 240.65,-286.7"
           style="fill:#1d2a56;fill-opacity:1;fill-rule:nonzero;stroke:none"
           id="path16"
           inkscape:connector-curvature="0" />
        <path
           d="m 3602.59,415.43 c 38.11,48.031 57.2,116.101 57.2,204.258 0,88.128 -19.09,155.976 -57.2,203.515 -38.14,47.535 -92.35,71.305 -162.66,71.305 -70.33,0 -125.04,-23.77 -164.15,-71.305 -39.14,-47.539 -58.67,-114.387 -58.67,-200.547 0,-88.144 19.53,-156.715 58.67,-205.734 39.11,-49.031 93.82,-73.543 164.15,-73.543 70.31,0 124.52,24 162.66,72.051 z m 161.18,877.19 c 10.89,-10.91 16.34,-24.77 16.34,-41.6 V 306.25 c 0,-17.828 -5.45,-32.199 -16.34,-43.09 -10.91,-10.879 -25.76,-16.332 -44.56,-16.332 -18.83,0 -33.43,5.453 -43.83,16.332 -10.4,10.891 -15.59,25.262 -15.59,43.09 v 80.211 c -21.8,-45.563 -53.74,-80.731 -95.82,-105.473 -42.1,-24.758 -91.36,-37.136 -147.81,-37.136 -63.39,0 -119.35,15.839 -167.86,47.539 -48.53,31.687 -86.16,75.988 -112.9,132.961 -26.74,56.929 -40.11,123.035 -40.11,198.304 0,74.278 13.37,139.645 40.11,196.09 26.74,56.449 64.37,100.02 112.9,130.723 48.51,30.683 104.47,46.047 167.86,46.047 56.45,0 105.71,-12.391 147.81,-37.137 42.08,-24.762 74.02,-59.926 95.82,-105.469 v 398.11 c 0,17.83 5.19,31.95 15.59,42.34 10.4,10.41 25,15.6 43.83,15.6 18.8,0 33.65,-5.46 44.56,-16.34"
           style="fill:#1d2a56;fill-opacity:1;fill-rule:nonzero;stroke:none"
           id="path18"
           inkscape:connector-curvature="0" />
        <path
           d="m 4378.74,942.043 c 0,-15.855 -4.46,-28.48 -13.37,-37.879 -8.91,-9.43 -24.27,-15.117 -46.04,-17.086 l -44.57,-4.453 c -66.36,-5.945 -115.65,-29.48 -147.82,-70.566 -32.18,-41.106 -48.27,-89.383 -48.27,-144.832 V 306.25 c 0,-19.832 -5.46,-34.68 -16.33,-44.57 -10.92,-9.879 -25.26,-14.852 -43.09,-14.852 -17.82,0 -32.45,5.203 -43.83,15.59 -11.4,10.402 -17.07,25 -17.07,43.832 v 626.879 c 0,18.801 5.94,33.422 17.81,43.82 11.9,10.399 26.24,15.598 43.09,15.598 15.83,0 29.2,-5.199 40.11,-15.598 10.89,-10.398 16.33,-24.508 16.33,-42.336 v -83.187 c 20.81,43.57 50.26,76.738 88.39,99.531 38.12,22.77 81.94,36.137 131.48,40.106 l 20.79,1.484 c 41.6,2.969 62.39,-13.883 62.39,-50.504"
           style="fill:#1d2a56;fill-opacity:1;fill-rule:nonzero;stroke:none"
           id="path20"
           inkscape:connector-curvature="0" />
        <path
           d="m 4887.52,413.941 c 38.12,47.028 57.2,115.618 57.2,205.747 0,88.128 -19.32,156.21 -57.94,204.257 -38.62,48.024 -93.1,72.047 -163.4,72.047 -70.33,0 -124.78,-24.023 -163.42,-72.047 -38.61,-48.047 -57.92,-116.129 -57.92,-204.257 0,-89.129 19.06,-157.469 57.18,-204.997 38.12,-47.543 92.85,-71.312 164.16,-71.312 71.3,0 126.01,23.519 164.14,70.562 z M 4542.89,289.91 c -52,30.68 -92.11,74.5 -120.33,131.461 -28.22,56.938 -42.33,123.043 -42.33,198.317 0,75.25 14.11,141.351 42.33,198.312 28.22,56.941 68.33,100.766 120.33,131.469 51.98,30.683 112.15,46.047 180.49,46.047 68.33,0 128.72,-15.364 181.23,-46.047 52.48,-30.703 92.83,-74.528 121.07,-131.469 28.22,-56.961 42.33,-123.062 42.33,-198.312 0,-75.274 -14.11,-141.379 -42.33,-198.317 -28.24,-56.961 -68.59,-100.781 -121.07,-131.461 -52.51,-30.711 -112.9,-46.058 -181.23,-46.058 -68.34,0 -128.51,15.347 -180.49,46.058"
           style="fill:#1d2a56;fill-opacity:1;fill-rule:nonzero;stroke:none"
           id="path22"
           inkscape:connector-curvature="0" />
        <path
           d="m 5220.26,262.418 c -11.4,10.402 -17.08,25 -17.08,43.832 v 626.879 c 0,18.801 5.68,33.422 17.08,43.82 11.37,10.399 26,15.598 43.82,15.598 17.84,0 32.17,-5.199 43.09,-15.598 10.88,-10.398 16.34,-25.019 16.34,-43.82 V 306.25 c 0,-19.832 -5.46,-34.68 -16.34,-44.57 -10.92,-9.879 -25.25,-14.852 -43.09,-14.852 -17.82,0 -32.45,5.203 -43.82,15.59 z m -14.11,906.902 c -14.86,13.86 -22.28,32.17 -22.28,54.97 0,21.77 7.42,39.6 22.28,53.47 14.85,13.86 34.16,20.8 57.93,20.8 23.77,0 43.09,-6.94 57.94,-20.8 14.86,-13.87 22.28,-31.7 22.28,-53.47 0,-22.8 -7.42,-41.11 -22.28,-54.97 -14.85,-13.87 -34.17,-20.8 -57.94,-20.8 -23.77,0 -43.08,6.93 -57.93,20.8"
           style="fill:#1d2a56;fill-opacity:1;fill-rule:nonzero;stroke:none"
           id="path24"
           inkscape:connector-curvature="0" />
        <path
           d="M 178.32,1244.72 80.4805,1304 c -9.1524,5.55 -19.1914,8.05 -28.9844,8.05 C 24.8359,1312.05 0,1293.46 0,1266.88 V 276.73 c 0,-26.582 24.832,-45.171 51.4961,-45.171 9.793,0 19.8398,2.511 28.9844,8.05 l 97.8395,59.282 v 945.829"
           style="fill:#6e9afc;fill-opacity:1;fill-rule:nonzero;stroke:none"
           id="path26"
           inkscape:connector-curvature="0" />
        <path
           d="m 1428.16,285.602 v 972.408 c 0,21.18 -11.85,41 -31.69,53.03 l -364.89,221.07 c -13.07,7.92 -27.41,11.5 -41.404,11.5 -38.09,0 -73.567,-26.56 -73.567,-64.53 V 64.5313 C 916.609,26.5586 952.082,0 990.176,0 c 13.994,0 28.344,3.58984 41.404,11.5 l 364.89,221.07 c 19.84,12.032 31.69,31.852 31.69,53.032"
           style="fill:#9effae;fill-opacity:1;fill-rule:nonzero;stroke:none"
           id="path28"
           inkscape:connector-curvature="0" />
        <path
           d="m 816.066,1375.74 -132.574,80.31 c -11.762,7.13 -24.668,10.36 -37.262,10.36 -34.281,0 -66.21,-23.91 -66.21,-58.08 V 135.281 c 0,-34.172 31.929,-58.0701 66.21,-58.0701 12.59,0 25.504,3.2188 37.262,10.3477 L 816.066,167.879 V 1375.74"
           style="fill:#90e7c7;fill-opacity:1;fill-rule:nonzero;stroke:none"
           id="path30"
           inkscape:connector-curvature="0" />
        <path
           d="m 479.48,1314.21 -108.64,65.82 c -10.457,6.33 -21.926,9.2 -33.125,9.2 -30.473,0 -58.852,-21.25 -58.852,-51.62 V 206.012 c 0,-30.383 28.379,-51.633 58.852,-51.633 11.191,0 22.672,2.871 33.125,9.199 l 108.64,65.82 V 1314.21"
           style="fill:#77b5e6;fill-opacity:1;fill-rule:nonzero;stroke:none"
           id="path32"
           inkscape:connector-curvature="0" />
      </g>
    </g>
  </g>
</svg>
